<svg class="icon" focusable="false" width="1em" height="1em" aria-hidden="true" version="1.1" xmlns="http://www.w3.org/2000/svg"
     xmlns:xlink="http://www.w3.org/1999/xlink">
    <symbol id="menu" fill-rule="evenodd" stroke-linejoin="round" stroke-miterlimit="2" clip-rule="evenodd" viewBox="0 0 24 24">
        <path fill-rule="nonzero"
              d="M22 16.75c0-.414-.336-.75-.75-.75H2.75c-.414 0-.75.336-.75.75s.336.75.75.75h18.5c.414 0 .75-.336.75-.75zm0-5c0-.414-.336-.75-.75-.75H2.75c-.414 0-.75.336-.75.75s.336.75.75.75h18.5c.414 0 .75-.336.75-.75zm0-5c0-.414-.336-.75-.75-.75H2.75c-.414 0-.75.336-.75.75s.336.75.75.75h18.5c.414 0 .75-.336.75-.75z"/>
    </symbol>
    <symbol id="history" fill-rule="evenodd" stroke-linejoin="round" stroke-miterlimit="2" clip-rule="evenodd" viewBox="0 0 24 24">
        <path fill-rule="nonzero"
              d="M3.503 6.726C5.268 3.89 8.414 2 11.998 2c5.518 0 9.997 4.48 9.997 9.997 0 5.519-4.479 9.999-9.997 9.999-5.245 0-9.553-4.048-9.966-9.188-.024-.302.189-.811.749-.811.391 0 .715.3.747.69.351 4.369 4.012 7.809 8.47 7.809 4.69 0 8.497-3.808 8.497-8.499 0-4.689-3.807-8.497-8.497-8.497-3.037 0-5.704 1.597-7.206 3.995l1.991.005c.414 0 .75.336.75.75s-.336.75-.75.75H2.75C2.336 9 2 8.664 2 8.25V4.201c0-.414.336-.75.75-.75s.75.335.75.75zm7.487.021.007 5.563c0 .288.165.55.424.675l3.978 1.928c.373.18.821.024 1.001-.349s.024-.821-.349-1.001l-3.555-1.725-.006-5.093c0-.414-.337-.749-.75-.749-.414 0-.75.337-.75.751z"/>
    </symbol>
    <symbol id="bookmarks" fill-rule="evenodd" stroke-linejoin="round" stroke-miterlimit="2" clip-rule="evenodd" viewBox="0 0 24 24">
        <path fill-rule="nonzero"
              d="M7.234 3.004C4.582 3.004 2 4.833 2 8.181c0 3.725 4.345 7.727 9.303 12.54.194.189.446.283.697.283s.503-.094.697-.283C17.674 15.89 22 11.907 22 8.181c0-3.353-2.58-5.168-5.229-5.168-1.836 0-3.646.866-4.771 2.554-1.13-1.696-2.935-2.563-4.766-2.563zm0 1.5c1.99.001 3.202 1.353 4.155 2.7.14.198.368.316.611.317.243 0 .471-.117.612-.314.955-1.339 2.19-2.694 4.159-2.694 1.796 0 3.729 1.148 3.729 3.668 0 2.671-2.881 5.673-8.5 11.127-5.454-5.285-8.5-8.389-8.5-11.127 0-1.125.389-2.069 1.124-2.727.673-.604 1.625-.95 2.61-.95z"/>
    </symbol>
    <symbol id="light" viewBox="0 0 24 24">
        <path d="M13.545 6.455c-.9-.9-2.17-1.481-3.545-1.481a4.934 4.934 0 0 0-3.545 1.481c-.9.9-1.481 2.17-1.481 3.545 0 1.376.582 2.646 1.481 3.545.9.9 2.17 1.481 3.545 1.481a4.934 4.934 0 0 0 3.545-1.481c.9-.9 1.481-2.17 1.481-3.545a4.934 4.934 0 0 0-1.481-3.545zM10 3.413a.7.7 0 0 0 .688-.688V.688A.7.7 0 0 0 10 0a.7.7 0 0 0-.688.688v2.037a.7.7 0 0 0 .688.688zm5.635 1.931 1.455-1.455a.67.67 0 0 0 0-.952.67.67 0 0 0-.952 0l-1.455 1.455a.67.67 0 0 0 0 .952c.238.264.66.264.952 0zm3.677 3.968h-2.037a.7.7 0 0 0-.688.688.7.7 0 0 0 .688.688h2.037A.7.7 0 0 0 20 10a.7.7 0 0 0-.688-.688zm-3.704 5.344a.67.67 0 0 0-.952 0 .67.67 0 0 0 0 .952l1.455 1.455a.67.67 0 0 0 .952 0 .67.67 0 0 0 0-.952l-1.455-1.455zM10 16.587a.7.7 0 0 0-.688.688v2.037A.7.7 0 0 0 10 20a.7.7 0 0 0 .688-.688v-2.037a.7.7 0 0 0-.688-.688zm-5.635-1.931L2.91 16.111a.67.67 0 0 0 0 .952.67.67 0 0 0 .952 0l1.455-1.455a.67.67 0 0 0 0-.952c-.238-.264-.66-.264-.952 0zM3.413 10a.7.7 0 0 0-.688-.688H.688A.7.7 0 0 0 0 10a.7.7 0 0 0 .688.688h2.037A.7.7 0 0 0 3.413 10zm.952-4.656a.67.67 0 0 0 .952 0 .67.67 0 0 0 0-.952L3.862 2.937a.67.67 0 0 0-.952 0 .67.67 0 0 0 0 .952l1.455 1.455z"/>
    </symbol>
    <symbol id="location" viewBox="0 0 14 20">
        <path d="M12.797 3.425C11.584 1.33 9.427.05 7.03.002a7.483 7.483 0 0 0-.308 0C4.325.05 2.17 1.33.955 3.425a6.963 6.963 0 0 0-.09 6.88l4.959 9.077.007.012c.218.38.609.606 1.045.606.437 0 .828-.226 1.046-.606l.007-.012 4.96-9.077a6.963 6.963 0 0 0-.092-6.88zm-5.92 5.638c-1.552 0-2.813-1.262-2.813-2.813s1.261-2.812 2.812-2.812S9.69 4.699 9.69 6.25 8.427 9.063 6.876 9.063z"/>
    </symbol>
    <symbol id="website" viewBox="0 0 20 20">
        <path d="M7.404 5.012c-2.355 2.437-1.841 6.482.857 8.273.089.06.207.048.283-.027.568-.555 1.049-1.093 1.47-1.776a.213.213 0 0 0-.084-.3A2.743 2.743 0 0 1 8.878 10.1a2.64 2.64 0 0 1-.223-1.803c.168-.815 1.043-1.573 1.711-2.274l-.004-.002 2.504-2.555a2.568 2.568 0 0 1 3.648-.019 2.6 2.6 0 0 1 .037 3.666l-1.517 1.56a.266.266 0 0 0-.06.273c.35 1.012.435 2.44.201 3.519-.006.03.031.05.053.028l3.228-3.295c2.062-2.105 2.044-5.531-.04-7.615a5.416 5.416 0 0 0-7.691.04L7.417 4.998l-.013.014z"/>
        <path d="M13.439 13.75a.401.401 0 0 0 .006-.003c.659-1.204.788-2.586.48-3.933l-.002.002-.001-.001a5.434 5.434 0 0 0-2.19-3.124.3.3 0 0 0-.333.015c-.553.448-1.095 1.021-1.452 1.754a.243.243 0 0 0 .096.317c.415.24.79.593 1.04 1.061h.001c.196.33.388.958.263 1.632-.116.894-1.019 1.714-1.736 2.453-.546.559-1.935 1.974-2.49 2.542a2.6 2.6 0 0 1-3.666.037 2.6 2.6 0 0 1-.038-3.666l1.521-1.564A.266.266 0 0 0 5 11.004c-.338-1.036-.43-2.432-.217-3.51.006-.03-.031-.049-.053-.027l-3.179 3.245c-2.083 2.126-2.066 5.588.04 7.693 2.125 2.083 5.57 2.048 7.653-.078.723-.81 3.821-3.678 4.195-4.577z"/>
    </symbol>
    <symbol id="twitter" viewBox="0 0 20 18">
        <path d="M20 2.799a8.549 8.549 0 0 1-2.363.647 4.077 4.077 0 0 0 1.804-2.266 8.194 8.194 0 0 1-2.6.993A4.099 4.099 0 0 0 9.75 4.977c0 .324.027.637.095.934-3.409-.166-6.425-1.8-8.452-4.288a4.128 4.128 0 0 0-.56 2.072c0 1.42.73 2.679 1.82 3.408A4.05 4.05 0 0 1 .8 6.598v.045a4.119 4.119 0 0 0 3.285 4.028 4.092 4.092 0 0 1-1.075.135c-.263 0-.528-.015-.776-.07.531 1.624 2.038 2.818 3.831 2.857A8.239 8.239 0 0 1 .981 15.34 7.68 7.68 0 0 1 0 15.285a11.543 11.543 0 0 0 6.29 1.84c7.545 0 11.67-6.25 11.67-11.667 0-.182-.006-.357-.015-.53A8.18 8.18 0 0 0 20 2.798z"/>
    </symbol>
    <symbol id="company" viewBox="0 0 20 20">
        <path d="M10.858 1.558 1.7.167A1.477 1.477 0 0 0 .517.492 1.49 1.49 0 0 0 0 1.608v17.559c0 .458.375.833.833.833h2.709v-4.375c0-.808.65-1.458 1.458-1.458h2.083c.809 0 1.459.65 1.459 1.458V20h3.541V3a1.46 1.46 0 0 0-1.225-1.442zM4.583 12.292h-1.25a.625.625 0 0 1 0-1.25h1.25a.625.625 0 0 1 0 1.25zm0-2.5h-1.25a.625.625 0 0 1 0-1.25h1.25a.625.625 0 0 1 0 1.25zm0-2.5h-1.25a.625.625 0 0 1 0-1.25h1.25a.625.625 0 0 1 0 1.25zm0-2.5h-1.25a.625.625 0 0 1 0-1.25h1.25a.625.625 0 0 1 0 1.25zm4.167 7.5H7.5a.625.625 0 0 1 0-1.25h1.25a.625.625 0 0 1 0 1.25zm0-2.5H7.5a.625.625 0 0 1 0-1.25h1.25a.625.625 0 0 1 0 1.25zm0-2.5H7.5a.625.625 0 0 1 0-1.25h1.25a.625.625 0 0 1 0 1.25zm0-2.5H7.5a.625.625 0 0 1 0-1.25h1.25a.625.625 0 0 1 0 1.25zm10.1 4.243-5.933-1.242V20h5.625A1.46 1.46 0 0 0 20 18.542V10.46c0-.688-.47-1.274-1.15-1.425zM16.875 17.5h-1.25a.625.625 0 0 1 0-1.25h1.25a.625.625 0 0 1 0 1.25zm0-2.5h-1.25a.625.625 0 0 1 0-1.25h1.25a.625.625 0 0 1 0 1.25zm0-2.5h-1.25a.625.625 0 0 1 0-1.25h1.25a.625.625 0 0 1 0 1.25z"/>
    </symbol>
    <symbol id="search" viewBox="0 0 25 24">
        <path d="M10.609 0c5.85 0 10.608 4.746 10.608 10.58 0 2.609-.952 5-2.527 6.847l5.112 5.087a.87.87 0 0 1-1.227 1.233l-5.118-5.093a10.58 10.58 0 0 1-6.848 2.505C4.759 21.16 0 16.413 0 10.58S4.76 0 10.609 0zm0 1.74c-4.891 0-8.87 3.965-8.87 8.84 0 4.874 3.979 8.84 8.87 8.84a8.855 8.855 0 0 0 6.213-2.537l.04-.047a.881.881 0 0 1 .058-.053 8.786 8.786 0 0 0 2.558-6.203c0-4.875-3.979-8.84-8.87-8.84z"/>
    </symbol>
    <symbol id="close" fill-rule="evenodd" stroke-linejoin="round" stroke-miterlimit="2" clip-rule="evenodd" viewBox="0 0 24 24">
        <path d="m12 10.93 5.719-5.72c.146-.146.339-.219.531-.219.404 0 .75.324.75.749 0 .193-.073.385-.219.532l-5.72 5.719 5.719 5.719c.147.147.22.339.22.531 0 .427-.349.75-.75.75-.192 0-.385-.073-.531-.219L12 13.053l-5.719 5.719c-.146.146-.339.219-.531.219-.401 0-.75-.323-.75-.75 0-.192.073-.384.22-.531l5.719-5.719-5.72-5.719C5.073 6.125 5 5.933 5 5.74c0-.425.346-.749.75-.749.192 0 .385.073.531.219z"/>
    </symbol>
</svg>